<?xml version="1.0" encoding="utf-8"?>
<!-- Generator: Adobe Illustrator 18.1.0, SVG Export Plug-In . SVG Version: 6.00 Build 0)  -->
<svg version="1.1" id="Layer_1" xmlns="http://www.w3.org/2000/svg" xmlns:xlink="http://www.w3.org/1999/xlink" x="0px" y="0px"
	 viewBox="0 0 480 640" enable-background="new 0 0 480 640" xml:space="preserve">
<g id="body">
	
		<linearGradient id="SVGID_1_" gradientUnits="userSpaceOnUse" x1="204.3135" y1="243.7536" x2="397.4" y2="243.7536" gradientTransform="matrix(1 0 0 -1 0 640)">
		<stop  offset="0" style="stop-color:#FF9B2A"/>
		<stop  offset="0.2309" style="stop-color:#FF9627"/>
		<stop  offset="0.5193" style="stop-color:#FF8620"/>
		<stop  offset="0.8369" style="stop-color:#FF6D14"/>
		<stop  offset="1" style="stop-color:#FF5D0D"/>
	</linearGradient>
	<path fill="url(#SVGID_1_)" d="M389.3,396.9c0,0,8.1,5.5,8.1,10.2s-4.6,7.1-4.6,14.4s3.1,8.4,3.1,12.8s-12.6,39.3-65.8,39.3
		s-61.6-60-78-60.1c-16.3-0.1-39.3-36.9-39.3-36.9s-13.3-29.4-6.6-44.4c3.3-7.6,35.7-16.3,69-12.3c32.6,3.8,66.1,20.1,73.9,25.6
		c15.9,11.2,17.7,18.7,25.2,30S389.3,396.9,389.3,396.9z"/>
	<path fill="#FFFFFF" d="M365.7,411.7c-0.3-1.9-1.7-2.7-3.6-2.7h-0.6l-0.1-0.3c-0.1,0-0.2-0.1-0.3-0.1c-0.1,0-0.1-0.1-0.2-0.1
		c-4.1,0-4.6,6.1-0.8,6.5c0.4,0.3,1,0.5,1.7,0.5c0.8,0,1.4-0.2,1.9-0.6c1-0.3,1.6-1,1.9-1.9C365.7,412.5,365.8,412.1,365.7,411.7z"
		/>
</g>
<g id="fin">
	<path d="M174.8,300.4c0-8.9,6.9-21.3,19.2-21.3s51.6,22.8,61,22.8s30-39.2,52-39.2c47.2,0,52,44.5,52,44.5s-2.8,29.4-11.1,37.8
		c0,0-34.8-28.1-81-28.1s-58,14.4-58,14.4S174.8,309.3,174.8,300.4z"/>
	<path d="M330,474.1c0,0,3.4,28.6-10.2,28.6s-16-19.6-16-19.6l7.6-12.3C311.4,470.7,321.5,474.5,330,474.1z"/>
	
		<linearGradient id="SVGID_2_" gradientUnits="userSpaceOnUse" x1="303.7689" y1="156.05" x2="330.3467" y2="156.05" gradientTransform="matrix(1 0 0 -1 0 640)">
		<stop  offset="0" style="stop-color:#FF9B2A"/>
		<stop  offset="0.4893" style="stop-color:#FF891D"/>
		<stop  offset="1" style="stop-color:#FF720D"/>
	</linearGradient>
	<path fill="url(#SVGID_2_)" d="M330,473.5c0,0,3.4,23.7-10.2,23.7s-16-16.3-16-16.3l7.6-10.2C311.4,470.7,321.5,473.8,330,473.5z"
		/>
	<path d="M197.9,372.4c0,0-21.4,24.5-33.1,24.5c-11.8,0-29.1-19.1-29.1-44c0,0-28.7-19.5-28.7-38.6s44.6-11,44.6-11"/>
	
		<linearGradient id="SVGID_3_" gradientUnits="userSpaceOnUse" x1="123" y1="293.5668" x2="195.9" y2="293.5668" gradientTransform="matrix(1 0 0 -1 0 640)">
		<stop  offset="0" style="stop-color:#FF9B2A"/>
		<stop  offset="0.4893" style="stop-color:#FF891D"/>
		<stop  offset="1" style="stop-color:#FF720D"/>
	</linearGradient>
	<path fill="url(#SVGID_3_)" d="M195.9,373.7c0,0-14.2,14.3-24.2,14.3c-9.9,0-24.5-16.6-24.5-38.1c0,0-24.2-16.9-24.2-33.5
		s33.1-10.4,33.1-10.4L195.9,373.7"/>
	
		<linearGradient id="SVGID_4_" gradientUnits="userSpaceOnUse" x1="270.9" y1="364.1" x2="270.9" y2="291" gradientTransform="matrix(1 0 0 -1 0 640)">
		<stop  offset="0" style="stop-color:#FBB03B"/>
		<stop  offset="0.295" style="stop-color:#FC9E30"/>
		<stop  offset="0.8832" style="stop-color:#FE7013"/>
		<stop  offset="1" style="stop-color:#FF660D"/>
	</linearGradient>
	<path fill="url(#SVGID_4_)" d="M207.4,330.5c0,0-20.8-17.7-20.8-25.8c0-8.1,6.3-16.7,17.6-16.7c11.2,0,54,22.5,54,27.5
		c0,0,4.7-6,13.2-16.5c7.4-9.2,19.8-23.1,39.9-23.1c43.2,0,43.9,38.6,43.9,38.6s-1.7,26.8-9.3,34.5c0,0-32.8-25.6-75-25.6
		s-60.5,9.4-60.5,9.4L207.4,330.5z"/>
	<path d="M290.1,458.2c0,0-22.5,0.5-22.5,27.4s27.4,7.1,32,3.4c4.6-3.6,12.8-18.6,12.8-18.6S296.9,465.2,290.1,458.2z"/>
	
		<linearGradient id="SVGID_5_" gradientUnits="userSpaceOnUse" x1="270.4" y1="163.7827" x2="313.3" y2="163.7827" gradientTransform="matrix(1 0 0 -1 0 640)">
		<stop  offset="0" style="stop-color:#FF9B2A"/>
		<stop  offset="0.4893" style="stop-color:#FF891D"/>
		<stop  offset="1" style="stop-color:#FF720D"/>
	</linearGradient>
	<path fill="url(#SVGID_5_)" d="M290.1,458.2c0,0-19.7,0.4-19.7,23.9s25.1,6.2,29.3,3c4.2-3.2,13.6-15.4,13.6-15.4
		S296.4,464.3,290.1,458.2z"/>
</g>
<g id="eye">
	<circle cx="361.1" cy="413.4" r="5.8"/>
</g>
<g id="stripes">
	<g>
		<path fill="#FFFFFF" d="M195.9,373.7l7.6-3.3l9.2,0.8c0,0-13.7-17.8-6.6-39.1c0,0-38.3-26.3-54-27.4
			C152.1,304.7,180.3,373.7,195.9,373.7z"/>
		<path d="M195.8,373.6c2.5-1.3,4.9-2.5,7.4-3.7c0.1,0,0.1-0.1,0.2,0h0.1c1.5,0,3.1,0.1,4.6,0.2l4.6,0.2l-0.8,1.6
			c-0.6-0.7-1.1-1.4-1.5-2.2c-0.5-0.7-0.9-1.5-1.4-2.2c-0.5-0.8-0.8-1.5-1.3-2.3l-1.1-2.4l-1-2.4c-0.3-0.8-0.6-1.7-0.9-2.5
			c-0.3-0.8-0.5-1.7-0.7-2.5s-0.4-1.7-0.6-2.6c-0.2-0.9-0.4-1.7-0.4-2.6l-0.3-2.6v-2.7c0-0.9,0-1.8,0.1-2.6c0.1-0.9,0.1-1.8,0.3-2.6
			c0.2-0.9,0.3-1.7,0.5-2.6c0.1-0.9,0.4-1.7,0.7-2.6l0.8-2.5l0.4,1.1c-2-1.5-4.1-3-6.2-4.4c-2.1-1.5-4.2-2.9-6.3-4.2
			c-4.3-2.7-8.6-5.3-13.1-7.7c-2.2-1.2-4.5-2.3-6.8-3.4c-1.1-0.5-2.3-1.1-3.4-1.6c-1.1-0.5-2.3-1-3.5-1.5s-2.3-0.9-3.5-1.4
			c-1.2-0.4-2.4-0.8-3.6-1.2c-1.2-0.4-2.4-0.7-3.6-1c-1.2-0.3-2.4-0.4-3.6-0.5l1.3-1.8c1.4,3.2,2.8,6.4,4.2,9.5
			c1.4,3.2,2.9,6.3,4.4,9.4s3,6.3,4.6,9.4c1.5,3.1,3.1,6.2,4.7,9.3c3.2,6.1,6.5,12.2,10.3,18c1.9,2.9,3.9,5.7,6.1,8.3
			c1.1,1.3,2.3,2.5,3.7,3.5C192.6,372.6,194.2,373.4,195.8,373.6z M195.9,373.9c-1.8,0.1-3.6-0.7-5.1-1.6s-2.9-2.1-4.2-3.3
			c-2.5-2.5-4.8-5.2-6.9-8c-2.1-2.8-4-5.8-5.9-8.7c-1.8-3-3.6-6-5.3-9.1s-3.3-6.2-4.9-9.3c-1.5-3.1-3.1-6.3-4.5-9.5
			s-2.9-6.4-4.2-9.6c-1.4-3.2-2.7-6.4-4-9.7V305c-0.3-0.7,0.1-1.4,0.7-1.6c0.2-0.1,0.4-0.1,0.6-0.1c1.4,0.2,2.7,0.4,3.9,0.8
			c1.3,0.3,2.5,0.7,3.7,1.2c1.2,0.4,2.4,0.9,3.6,1.4c1.2,0.5,2.3,1.1,3.5,1.6c4.6,2.2,9,4.7,13.5,7.3c2.2,1.3,4.4,2.5,6.6,3.9
			l6.6,3.9c4.4,2.6,8.8,5.2,13.1,7.9c0.3,0.2,0.5,0.6,0.4,1v0.1l-0.6,2.4c-0.2,0.8-0.4,1.6-0.5,2.4s-0.2,1.6-0.3,2.5
			c-0.1,0.8-0.1,1.7-0.2,2.5l-0.1,1.2c0,0.4,0,0.8,0,1.2l0.1,2.5l0.3,2.5c0,0.8,0.2,1.6,0.4,2.5c0.1,0.8,0.3,1.6,0.5,2.4
			s0.4,1.6,0.6,2.4l0.8,2.4l0.9,2.4l1,2.3c0.4,0.7,0.7,1.5,1.1,2.3c0.4,0.7,0.8,1.5,1.2,2.2s0.9,1.4,1.3,2.1v0.1
			c0.3,0.4,0.2,1-0.2,1.3c-0.2,0.1-0.4,0.2-0.6,0.2l-4.6-0.5c-1.5-0.2-3-0.4-4.6-0.6h0.3C201.1,372,198.6,373,195.9,373.9
			L195.9,373.9L195.9,373.9z"/>
	</g>
	<g>
		<path fill="#FFFFFF" d="M374.1,375.4c0,0,0-4.2-18.1-4.2s-46.4,33.6-46.4,60.7s21,39.5,37.3,39.5c0,0,4.4-0.2,6.8-1.3
			c0,0-23.4-12.6-23.4-29.2s16.6-44.2,57.9-44.2L374.1,375.4z"/>
		<path d="M374,375.5c-0.1-0.4-0.4-0.7-0.7-1c-0.2-0.1-0.3-0.3-0.5-0.4s-0.4-0.2-0.6-0.3c-0.8-0.4-1.6-0.6-2.4-0.8
			c-1.7-0.4-3.4-0.6-5.1-0.8c-0.9-0.1-1.7-0.1-2.6-0.2h-2.6h-2.6h-0.7H356h-0.1h-0.3c-0.4,0-0.9,0.1-1.3,0.1
			c-3.2,0.5-6.5,1.9-9.4,3.6c-2.9,1.8-5.7,3.9-8.3,6.1c-2.6,2.3-5,4.8-7.2,7.4s-4.3,5.4-6.3,8.3c-1.9,2.9-3.7,5.8-5.3,8.9
			c-1.6,3.1-3,6.2-4.2,9.5c-1.2,3.2-2.1,6.6-2.7,10c-0.2,0.8-0.2,1.7-0.3,2.6c-0.1,0.9-0.1,1.7-0.2,2.6v0.6v0.2v0.1v0.3v1.3l0.1,2.6
			c0.1,1.7,0.4,3.4,0.6,5.1l0.6,2.5c0.2,0.8,0.4,1.7,0.7,2.5l0.9,2.4c0.3,0.8,0.8,1.6,1.1,2.3c0.7,1.6,1.7,3,2.7,4.5
			c0.5,0.7,1.1,1.4,1.6,2c0.6,0.7,1.1,1.4,1.7,1.9l1.9,1.8l2,1.6c2.8,2.1,5.8,3.8,9,5s6.6,2.1,10,2.3c0.9,0.1,1.7,0.1,2.6,0.1h0.6
			h0.2c0,0,0.1,0,0,0h0.1h0.3c0.4,0,0.8-0.1,1.3-0.1c1.7-0.2,3.4-0.6,4.8-1.2l-0.1,1.9c-2.3-1.2-4.4-2.6-6.5-4c-2.1-1.5-4.1-3-6-4.7
			s-3.7-3.5-5.4-5.5c-1.6-2-3.1-4.1-4.3-6.5c-1.1-2.4-2-4.9-2.2-7.6c0-0.3,0-0.7-0.1-1V441v-0.3v-0.3l0.1-1.9c0-1.2,0.3-2.6,0.5-3.9
			c0.5-2.6,1.3-5.1,2.2-7.5c0.4-1.2,1.1-2.3,1.6-3.5c0.3-0.6,0.6-1.2,0.9-1.7l1-1.6l1-1.6c0.4-0.5,0.8-1,1.2-1.5l1.2-1.5
			c0.4-0.5,0.8-1,1.3-1.5l2.7-2.8c0.9-0.9,1.9-1.7,2.9-2.5c0.9-0.9,2-1.6,3.1-2.3l1.6-1.1l0.8-0.6l0.8-0.5l3.4-1.9
			c0.3-0.2,0.6-0.3,0.8-0.5l0.9-0.4l1.8-0.8l1.8-0.8l0.9-0.4c0.3-0.1,0.6-0.2,0.9-0.3l3.6-1.1c0.6-0.2,1.2-0.4,1.8-0.5l1.9-0.4
			l3.7-0.8c2.5-0.4,5-0.6,7.5-0.9l7.6-0.1l-0.7,1.4c-2.3-3.6-4.6-7.2-6.8-10.9C378.5,382.8,376.2,379.2,374,375.5L374,375.5
			L374,375.5z M374.3,375.4c2.5,3.5,4.9,7,7.4,10.5s4.9,7,7.3,10.5c0.3,0.4,0.2,0.9-0.2,1.2c-0.1,0.1-0.3,0.1-0.4,0.2h-0.1l-7.4,0.5
			c-2.4,0.4-4.9,0.7-7.3,1.1l-3.6,0.9l-1.8,0.4c-0.6,0.1-1.2,0.4-1.7,0.6l-3.5,1.2c-0.3,0.1-0.6,0.2-0.9,0.3l-0.8,0.4l-1.7,0.8
			l-1.7,0.8l-0.8,0.4c-0.3,0.1-0.5,0.3-0.8,0.5l-3.1,1.8l-0.8,0.5l-0.7,0.5l-1.5,1.1c-1,0.7-2,1.4-2.9,2.2c-0.9,0.8-1.8,1.6-2.7,2.4
			l-2.5,2.6c-0.2,0.2-0.4,0.4-0.6,0.7l-0.5,0.7l-1.1,1.4c-0.4,0.5-0.8,0.9-1.1,1.4l-1,1.5l-1,1.5c-0.3,0.5-0.6,1.1-0.8,1.6
			c-0.5,1.1-1.2,2.1-1.5,3.2c-0.9,2.2-1.7,4.5-2.2,6.8c-0.2,1.2-0.5,2.2-0.5,3.5l-0.1,1.9v0.1v0.1l0,0v-0.1v0.2v0.4
			c0,0.3,0,0.6,0,0.9c0.2,2.3,0.9,4.5,1.9,6.7c2,4.3,5.2,8,8.8,11.3c1.8,1.7,3.7,3.2,5.6,4.7c2,1.4,4,2.8,6.1,4.1h0.1
			c0.5,0.3,0.7,0.9,0.4,1.4c-0.1,0.2-0.3,0.4-0.5,0.4c-1.9,0.7-3.6,1-5.4,1.2c-0.4,0-0.9,0.1-1.4,0.1H347h-0.1c-0.1,0-0.1,0-0.1,0
			h-0.2h-0.7c-0.9-0.1-1.8-0.1-2.7-0.2c-3.6-0.4-7-1.4-10.3-2.8c-3.3-1.3-6.4-3.3-9.2-5.4c-2.9-2.1-5.2-4.8-7.4-7.7
			c-1-1.5-2-2.9-2.8-4.6c-0.4-0.8-0.9-1.6-1.2-2.4l-1-2.5c-0.4-0.8-0.6-1.7-0.8-2.5l-0.7-2.6c-0.2-0.9-0.3-1.8-0.5-2.6
			c-0.1-0.9-0.4-1.8-0.4-2.6l-0.2-2.6l-0.1-1.3v-0.3c0-0.1,0-0.1,0-0.2V432v-0.7c0-0.9,0-1.8,0.1-2.7c0.1-0.9,0.1-1.8,0.2-2.7
			c0.4-3.6,1.2-7.1,2.3-10.5c1.1-3.4,2.4-6.7,4-9.9c1.6-3.2,3.4-6.3,5.4-9.2c2-2.9,4.2-5.8,6.5-8.5s4.9-5.2,7.6-7.5s5.6-4.4,8.8-6.2
			c3.2-1.7,6.6-3.1,10.3-3.5c0.4,0,0.9,0,1.3,0h0.3h0.2h0.2h0.7c0.9,0,1.8,0.1,2.7,0.1l2.6,0.2c0.9,0.1,1.8,0.2,2.6,0.3
			c1.8,0.3,3.5,0.6,5.2,1.1c0.8,0.3,1.7,0.6,2.5,1.1c0.2,0.1,0.4,0.2,0.6,0.4c0.2,0.1,0.4,0.3,0.5,0.4
			C373.9,374.5,374.2,374.9,374.3,375.4z"/>
	</g>
	<g>
		<path fill="#FFFFFF" d="M250.1,308.3c0,0,7.9,2.6,15.3-1.9s21.9,18.3,21.9,27.9S275,352.2,275,364.1s-13.4,36.1-27.7,48.4l-8.5-5
			c0,0,7.9-13.9,8.5-30.2s-6-22.5-5.4-33.5C242.6,332,251.1,340.7,250.1,308.3z"/>
		<path d="M250.2,308.2c2.9,0.7,5.9,0.7,8.8,0.1c1.4-0.3,2.8-0.8,4.1-1.4c0.7-0.3,1.3-0.7,1.9-1.1l0.6-0.3l0.2-0.1l0.4-0.1
			c0.2-0.1,0.5-0.2,0.7-0.2l0.7-0.1c1.8,0,3.4,0.7,4.8,1.5s2.6,1.9,3.7,2.9c2.3,2.2,4.2,4.6,5.9,7.1c1.7,2.6,3.3,5.2,4.6,8.1
			c0.6,1.4,1.2,2.9,1.7,4.4s0.9,3.1,1,4.8v0.3v0.2l0,0v0.2v0.1v0.6l-0.1,1.1l-0.2,1.3c-0.1,0.5-0.2,0.9-0.3,1.3
			c-0.3,0.8-0.5,1.6-0.8,2.3l-0.5,1.1l-0.5,1.1c-1.5,2.8-3.1,5.4-4.6,7.9s-2.9,5-3.7,7.6c-0.4,1.3-0.7,2.6-0.8,3.9l-0.1,2.2
			l-0.1,1.1c0,0.4,0,0.7-0.1,1.2l-0.4,2.5l-0.6,2.3c-0.2,0.8-0.4,1.5-0.7,2.3c-0.2,0.7-0.5,1.5-0.7,2.2c-0.5,1.5-1.1,2.9-1.7,4.3
			s-1.3,2.8-1.9,4.2c-0.7,1.4-1.4,2.7-2.1,4.1c-0.8,1.3-1.5,2.7-2.3,4c-1.6,2.6-3.3,5.2-5.1,7.7c-0.9,1.2-1.8,2.5-2.8,3.7l-1.5,1.8
			l-1.6,1.7c-2.1,2.3-4.3,4.5-6.7,6.5c-0.8,0.7-2.1,0.8-3,0.3l0,0l-8.5-5c-1.2-0.7-1.6-2.2-0.9-3.4c0.9-1.7,1.9-3.6,2.7-5.5
			s1.6-3.9,2.2-5.8c0.7-2,1.2-4,1.7-6c0.3-1,0.4-2,0.7-3c0.2-1,0.4-2,0.5-3.1c0.3-2,0.5-4.1,0.6-6.1c0-1.1,0.1-2.2,0-3.2v-1.5
			c0-0.5-0.1-1-0.1-1.5c-0.3-4.1-1.3-8.1-2.4-12.3c-0.6-2.1-1.2-4.2-1.6-6.4c-0.4-2.2-0.7-4.5-0.6-6.8v-0.9v-0.5l0.1-0.4l0.2-1.6
			l0.4-1.8c0.2-0.6,0.4-1.2,0.7-1.7c0.6-1.1,1.3-2,2-2.8l1-1.2c0.3-0.4,0.6-0.8,0.9-1.2c0.2-0.4,0.5-0.8,0.7-1.3l0.6-1.4
			c0.3-1,0.7-1.9,0.9-3l0.4-1.5c0.1-0.5,0.2-1,0.3-1.6l0.3-1.6c0.1-0.5,0.1-1.1,0.2-1.6c0.1-1.1,0.3-2.1,0.3-3.2l0.2-3.2
			c0.1-2.1,0.2-4.3,0.3-6.4C250,308.2,250.1,308.2,250.2,308.2L250.2,308.2z M250.3,308.5c0,2.1,0.1,4.2,0,6.3
			c-0.1,2.2-0.1,4.3-0.3,6.5c0,0.5-0.1,1.1-0.1,1.6l-0.2,1.6c-0.1,0.5-0.1,1.1-0.2,1.6l-0.3,1.6c-0.2,1.1-0.6,2.1-0.9,3.1l-0.6,1.5
			c-0.2,0.5-0.5,1-0.8,1.4c-1.1,1.9-2.7,3.4-3.6,5.3c-0.2,0.5-0.4,1-0.6,1.5l-0.4,1.5c-0.1,1.1-0.3,2.1-0.2,3.2
			c0,2.1,0.2,4.3,0.7,6.3c0.5,2.1,1.1,4.1,1.7,6.2c1.3,4.1,2.4,8.3,2.8,12.6c0.2,2.1,0.3,4.3,0.3,6.5c0,1.1-0.1,2.2-0.2,3.2
			c-0.1,1.1-0.2,2.1-0.3,3.2c-0.2,1.1-0.3,2.1-0.5,3.2s-0.4,2.1-0.7,3.2c-0.5,2.1-1.1,4.2-1.8,6.2s-1.4,4.1-2.3,6.1
			c-0.8,2-1.7,3.9-2.8,5.8l-0.1-0.4l8.5,5h-0.3c2.2-2,4.4-4.1,6.4-6.3l1.5-1.7l1.4-1.7c1-1.1,1.8-2.4,2.8-3.5c1.8-2.4,3.4-4.9,5-7.4
			c0.8-1.3,1.5-2.6,2.3-3.9c0.7-1.3,1.5-2.6,2.1-4c0.7-1.3,1.3-2.7,1.9-4.1s1.2-2.8,1.7-4.2c1-2.8,1.9-5.7,2.3-8.6
			c0.1-0.7,0.1-1.5,0.2-2.2l0.1-2.3c0.1-1.5,0.5-3,1-4.4c1-2.9,2.5-5.5,4-8.1c1.6-2.6,3.3-5,4.7-7.6c1.4-2.6,2.6-5.4,2.4-8.4
			s-1.2-5.8-2.4-8.6c-1.2-2.7-2.6-5.4-4.2-7.9s-3.4-4.9-5.5-7.1c-1-1.1-2.2-2.1-3.4-2.9c-1.2-0.8-2.6-1.5-4.1-1.5
			c-1.5-0.1-2.7,1.1-4.1,1.6c-1.4,0.6-2.8,1.1-4.3,1.3C256.2,309.4,253.2,309.3,250.3,308.5z"/>
	</g>
	<path fill="#FFFFFF" d="M361.6,409.3c-4.3,0-3.5,6.6,0.7,6.6C366.6,415.8,365.9,409.3,361.6,409.3z"/>
</g>
<g id="front_fin">
	<path d="M211.8,373.7c0,0-30.2,11.2-30.2,27s22.8,27.8,39.5,27.8s18.4-12.8,18.4-12.8"/>
	
		<linearGradient id="SVGID_6_" gradientUnits="userSpaceOnUse" x1="189.6" y1="242.2" x2="247.4" y2="242.2" gradientTransform="matrix(1 0 0 -1 0 640)">
		<stop  offset="0" style="stop-color:#FF9B2A"/>
		<stop  offset="0.4893" style="stop-color:#FF891D"/>
		<stop  offset="1" style="stop-color:#FF720D"/>
	</linearGradient>
	<path fill="url(#SVGID_6_)" d="M212.7,372.2c0,0-23.1,11.2-23.1,25.7s22.2,25.5,39.1,25.5s18.7-9.9,18.7-9.9S212.7,382,212.7,372.2
		"/>
	
		<linearGradient id="SVGID_7_" gradientUnits="userSpaceOnUse" x1="362.8" y1="263.5" x2="362.8" y2="263.5" gradientTransform="matrix(1 0 0 -1 0 640)">
		<stop  offset="0" style="stop-color:#FF9B2A"/>
		<stop  offset="0.2309" style="stop-color:#FF9627"/>
		<stop  offset="0.5193" style="stop-color:#FF8620"/>
		<stop  offset="0.8369" style="stop-color:#FF6D14"/>
		<stop  offset="1" style="stop-color:#FF5D0D"/>
	</linearGradient>
	<path fill="url(#SVGID_7_)" d="M362.8,376.5"/>
	<path d="M302.2,417.5c0,0-0.2-36.8-43.4-36.8c-47,0-25.8,85.2,0,81.7c25.8-3.6,42.8-20.4,42.8-20.4L302.2,417.5z"/>
	
		<linearGradient id="SVGID_8_" gradientUnits="userSpaceOnUse" x1="240.7223" y1="220.3494" x2="307.2" y2="220.3494" gradientTransform="matrix(1 0 0 -1 0 640)">
		<stop  offset="0" style="stop-color:#FFB32A"/>
		<stop  offset="0.3296" style="stop-color:#FFA122"/>
		<stop  offset="0.9872" style="stop-color:#FF730D"/>
		<stop  offset="1" style="stop-color:#FF720D"/>
	</linearGradient>
	<path fill="url(#SVGID_8_)" d="M307.2,415.9c0,0-0.2-33.9-40.5-33.9c-43.8,0-24.1,78.5,0,75.2s39.9-18.8,39.9-18.8L307.2,415.9z"/>
</g>
</svg>
