<?xml version="1.0" encoding="utf-8"?>
<!-- Generator: Adobe Illustrator 18.1.0, SVG Export Plug-In . SVG Version: 6.00 Build 0)  -->
<svg version="1.1" xmlns="http://www.w3.org/2000/svg" xmlns:xlink="http://www.w3.org/1999/xlink" x="0px" y="0px"
	 viewBox="0 0 240 180" enable-background="new 0 0 240 180" xml:space="preserve">
<g id="body">
</g>
<g id="fin">
</g>
<g id="eye">
</g>
<g id="stripes">
</g>
<g id="front_fin">
	
		<polyline fill="none" stroke="#000000" stroke-width="5" stroke-linecap="round" stroke-linejoin="round" stroke-miterlimit="10" points="
		129,157.8 89.4,108.5 47.6,157.8 	"/>
	
		<rect x="35" y="33.3" fill="#FFFFFF" stroke="#000000" stroke-width="3" stroke-linecap="round" stroke-linejoin="round" stroke-miterlimit="10" width="105.8" height="75.2"/>
	
		<rect x="35" y="24.4" fill="#FFFFFF" stroke="#000000" stroke-width="3" stroke-linecap="round" stroke-linejoin="round" stroke-miterlimit="10" width="105.8" height="2.5"/>
	
		<rect x="85.9" y="20.4" fill="#FFFFFF" stroke="#000000" stroke-width="3" stroke-linecap="round" stroke-linejoin="round" stroke-miterlimit="10" width="5.1" height="2.5"/>
	
		<rect x="35" y="109.3" fill="#FFFFFF" stroke="#000000" stroke-width="3" stroke-linecap="round" stroke-linejoin="round" stroke-miterlimit="10" width="105.8" height="2.5"/>
	<g>
		<polyline fill="#FFFFFF" points="133.3,99.5 124.7,87 111.3,93.3 100,70.9 87.9,85.2 47.6,42.7 		"/>
		<g>
			<polyline fill="none" stroke="#EC2700" stroke-width="3" stroke-linejoin="round" points="133.3,99.5 124.7,87 111.3,93.3 
				100,70.9 87.9,85.2 53.6,49 			"/>
			<g>
				<polygon fill="#EC2700" points="60.4,48.3 54.8,50.4 52.5,55.8 47.6,42.7 				"/>
			</g>
		</g>
	</g>
	<g>
		<path d="M143.9,110.4c0,0,3.9-10.8-8.8-15.4c-13.7-5-16.6,22.2-8.7,23.9s14.7-1.4,14.7-1.4L143.9,110.4z"/>
		
			<linearGradient id="SVGID_1_" gradientUnits="userSpaceOnUse" x1="111.4605" y1="73.0668" x2="90.3914" y2="63.2421" gradientTransform="matrix(0.9397 0.342 -0.342 0.9397 63.6614 9.8146)">
			<stop  offset="0" style="stop-color:#FF720D"/>
			<stop  offset="1.284957e-02" style="stop-color:#FF730D"/>
			<stop  offset="0.6704" style="stop-color:#FFA122"/>
			<stop  offset="1" style="stop-color:#FFB32A"/>
		</linearGradient>
		<path fill="url(#SVGID_1_)" d="M145.6,110.5c0,0,3.5-9.9-8.2-14.2c-12.8-4.7-15.4,20.4-8,22c7.4,1.6,13.7-1.3,13.7-1.3
			L145.6,110.5z"/>
		
			<linearGradient id="SVGID_2_" gradientUnits="userSpaceOnUse" x1="-20.7565" y1="113.0404" x2="39.3404" y2="113.0404" gradientTransform="matrix(-1 0 0 1 168 0)">
			<stop  offset="0" style="stop-color:#FF9B2A"/>
			<stop  offset="0.2309" style="stop-color:#FF9627"/>
			<stop  offset="0.5193" style="stop-color:#FF8620"/>
			<stop  offset="0.8369" style="stop-color:#FF6D14"/>
			<stop  offset="1" style="stop-color:#FF5D0D"/>
		</linearGradient>
		<path fill="url(#SVGID_2_)" d="M131.2,113.3c0,0-2.5,1.7-2.5,3.2c0,1.4,1.4,2.2,1.4,4.5s-1,2.6-1,4s3.9,12.2,20.5,12.2
			s19.2-18.7,24.3-18.7s12.2-11.5,12.2-11.5s4.1-9.1,2.1-13.8c-1-2.4-11.1-5.1-21.5-3.8c-10.1,1.2-20.6,6.2-23,8
			c-4.9,3.5-5.5,5.8-7.8,9.3C133.5,110.1,131.2,113.3,131.2,113.3z"/>
		<path fill="#FFFFFF" d="M138.5,117.8c0.1-0.6,0.5-0.8,1.1-0.8h0.2c0,0,0-0.1,0-0.1c0,0,0.1,0,0.1,0c0,0,0,0,0.1,0
			c1.3,0,1.4,1.9,0.3,2c-0.1,0.1-0.3,0.1-0.5,0.1c-0.2,0-0.4-0.1-0.6-0.2c-0.3-0.1-0.5-0.3-0.6-0.6
			C138.5,118.1,138.5,118,138.5,117.8z"/>
		<path d="M197.9,83.3c0-2.8-2.2-6.6-6-6.6c-3.8,0-16.1,7.1-19,7.1c-2.9,0-9.3-12.2-16.2-12.2c-14.7,0-16.2,13.8-16.2,13.8
			s0.9,9.2,3.5,11.8c0,0,10.8-8.7,25.2-8.7s18,4.5,18,4.5S197.9,86,197.9,83.3z"/>
		<path d="M149.6,137.3c0,0-1.1,8.9,3.2,8.9s5-6.1,5-6.1l-2.4-3.8C155.4,136.2,152.2,137.4,149.6,137.3z"/>
		
			<linearGradient id="SVGID_3_" gradientUnits="userSpaceOnUse" x1="10.2268" y1="140.3548" x2="18.4976" y2="140.3548" gradientTransform="matrix(-1 0 0 1 168 0)">
			<stop  offset="0" style="stop-color:#FF9B2A"/>
			<stop  offset="0.4893" style="stop-color:#FF891D"/>
			<stop  offset="1" style="stop-color:#FF720D"/>
		</linearGradient>
		<path fill="url(#SVGID_3_)" d="M149.6,137.1c0,0-1.1,7.4,3.2,7.4s5-5.1,5-5.1l-2.4-3.2C155.4,136.2,152.2,137.2,149.6,137.1z"/>
		<path d="M190.7,105.6c0,0,6.6,7.6,10.3,7.6s9-6,9-13.7c0,0,8.9-6.1,8.9-12c0-6-13.9-3.4-13.9-3.4"/>
		
			<linearGradient id="SVGID_4_" gradientUnits="userSpaceOnUse" x1="-46.0214" y1="97.5769" x2="-23.3473" y2="97.5769" gradientTransform="matrix(-1 0 0 1 168 0)">
			<stop  offset="0" style="stop-color:#FF9B2A"/>
			<stop  offset="0.4893" style="stop-color:#FF891D"/>
			<stop  offset="1" style="stop-color:#FF720D"/>
		</linearGradient>
		<path fill="url(#SVGID_4_)" d="M191.3,106.1c0,0,4.4,4.4,7.5,4.4s7.6-5.2,7.6-11.9c0,0,7.5-5.3,7.5-10.4c0-5.2-10.3-3.2-10.3-3.2
			L191.3,106.1"/>
		
			<linearGradient id="SVGID_5_" gradientUnits="userSpaceOnUse" x1="1.004239e-02" y1="75.6053" x2="1.004239e-02" y2="98.3422" gradientTransform="matrix(-1 0 0 1 168 0)">
			<stop  offset="0" style="stop-color:#FBB03B"/>
			<stop  offset="0.295" style="stop-color:#FC9E30"/>
			<stop  offset="0.8832" style="stop-color:#FE7013"/>
			<stop  offset="1" style="stop-color:#FF660D"/>
		</linearGradient>
		<path fill="url(#SVGID_5_)" d="M187.8,92.6c0,0,6.5-5.5,6.5-8c0-2.5-2-5.2-5.5-5.2c-3.5,0-16.8,7-16.8,8.6c0,0-1.5-1.9-4.1-5.1
			c-2.3-2.9-6.2-7.2-12.4-7.2c-13.5,0-13.7,12-13.7,12s0.5,8.4,2.9,10.7c0,0,10.2-8,23.4-8s18.8,2.9,18.8,2.9L187.8,92.6z"/>
		<path d="M162,132.3c0,0,7,0.1,7,8.5s-8.5,2.2-10,1.1c-1.4-1.1-4-5.8-4-5.8S159.9,134.5,162,132.3z"/>
		
			<linearGradient id="SVGID_6_" gradientUnits="userSpaceOnUse" x1="-0.1465" y1="137.9494" x2="13.2097" y2="137.9494" gradientTransform="matrix(-1 0 0 1 168 0)">
			<stop  offset="0" style="stop-color:#FF9B2A"/>
			<stop  offset="0.4893" style="stop-color:#FF891D"/>
			<stop  offset="1" style="stop-color:#FF720D"/>
		</linearGradient>
		<path fill="url(#SVGID_6_)" d="M162,132.3c0,0,6.1,0.1,6.1,7.4c0,7.3-7.8,1.9-9.1,0.9c-1.3-1-4.2-4.8-4.2-4.8
			S160.1,134.2,162,132.3z"/>
		<circle cx="139.9" cy="118.4" r="1.8"/>
		<g>
			<path fill="#FFFFFF" d="M191.3,106.1l-2.4-1l-2.9,0.2c0,0,4.3-5.5,2.1-12.2c0,0,11.9-8.2,16.8-8.5
				C205,84.6,196.2,106.1,191.3,106.1z"/>
			<path d="M191.4,106.2L191.4,106.2c-0.9-0.2-1.8-0.4-2.6-0.6l0.3,0c-0.5,0.1-0.9,0.2-1.4,0.3c-0.5,0.1-0.9,0.2-1.4,0.3
				c-0.5,0.1-1-0.3-1.1-0.8c0-0.2,0-0.4,0.1-0.6l0.1-0.2c0.1-0.2,0.2-0.4,0.3-0.6c0.1-0.2,0.2-0.4,0.3-0.7c0.2-0.5,0.4-0.9,0.6-1.4
				c0.2-0.5,0.3-0.9,0.4-1.4c0.1-0.2,0.1-0.5,0.2-0.7c0.1-0.2,0.1-0.5,0.1-0.7c0.1-0.5,0.1-1,0.2-1.4c0-0.5,0.1-1,0-1.4
				c0-0.2,0-0.5,0-0.7c0-0.2,0-0.5-0.1-0.7c0-0.5-0.1-1-0.2-1.5l0-0.4c0-0.3,0.1-0.6,0.4-0.8c1.4-0.8,2.9-1.4,4.3-2.2
				c0.7-0.4,1.4-0.8,2.1-1.2c0.7-0.4,1.4-0.8,2-1.2l2-1.3c0.7-0.4,1.4-0.8,2.1-1.3c0.7-0.4,1.4-0.8,2.2-1.1c0.4-0.2,0.8-0.3,1.2-0.5
				c0.4-0.1,0.9-0.2,1.4-0.3c0.7-0.1,1.3,0.3,1.4,0.9c0,0.2,0,0.5,0,0.7l-0.1,0.2c-0.7,2.1-1.5,4.1-2.4,6.1c-0.9,2-1.9,4-3,5.9
				c-1.1,1.9-2.4,3.7-3.8,5.5c-0.7,0.9-1.5,1.7-2.4,2.4c-0.4,0.4-0.9,0.7-1.5,1C192.6,106.1,192,106.3,191.4,106.2z M191.4,105.9
				c0.5-0.1,0.9-0.4,1.2-0.8c0.4-0.4,0.7-0.7,1-1.2c0.3-0.4,0.6-0.9,0.9-1.3c0.3-0.4,0.5-0.9,0.8-1.4c1-1.9,2-3.8,2.9-5.7
				c0.9-1.9,1.8-3.9,2.8-5.8c1-1.9,1.9-3.8,2.8-5.8l1.3,1.8c-0.3,0-0.6,0-1,0.1c-0.4,0.1-0.7,0.1-1.1,0.2l-1.1,0.3l-1.1,0.3
				c-1.5,0.5-2.9,1.1-4.3,1.8c-1.4,0.7-2.8,1.5-4.1,2.4c-0.6,0.5-1.3,0.9-1.9,1.4c-0.6,0.5-1.2,1-1.8,1.5l0.4-1.1
				c0.2,0.5,0.5,1.1,0.6,1.6c0.2,0.6,0.3,1.1,0.3,1.7c0.1,0.6,0.1,1.2,0.1,1.8c-0.1,0.6-0.1,1.2-0.2,1.7c-0.1,0.3-0.1,0.6-0.2,0.9
				c-0.1,0.3-0.2,0.6-0.3,0.8c-0.2,0.6-0.4,1.1-0.7,1.6c-0.3,0.5-0.5,1-0.8,1.5c-0.2,0.2-0.3,0.5-0.5,0.7c-0.2,0.2-0.3,0.4-0.6,0.7
				l-0.8-1.6c0.5,0,1,0,1.4,0c0.5,0,1,0,1.4,0.1l0.2,0c0,0,0.1,0,0.1,0C189.9,104.9,190.7,105.4,191.4,105.9z"/>
		</g>
		<g>
			<path fill="#FFFFFF" d="M135.9,106.6c0,0,0-1.3,5.6-1.3c5.6,0,14.4,10.4,14.4,18.9s-6.5,12.3-11.6,12.3c0,0-1.4-0.1-2.1-0.4
				c0,0,7.3-3.9,7.3-9.1c0-5.2-5.2-13.7-18-13.7L135.9,106.6z"/>
			<path d="M135.7,106.5c0.1-0.4,0.3-0.5,0.6-0.7c0.2-0.2,0.5-0.3,0.8-0.4c0.5-0.2,1.1-0.4,1.7-0.5c0.6-0.1,1.1-0.2,1.7-0.3l0.8-0.1
				l0.2,0l0.1,0l0.1,0l0.1,0l0.4,0c0.5,0,1.2,0.1,1.8,0.3c0.6,0.2,1.1,0.4,1.7,0.7c1.1,0.5,2,1.2,2.9,1.9c0.9,0.7,1.7,1.5,2.5,2.4
				c0.8,0.9,1.5,1.8,2.1,2.7c0.6,1,1.2,1.9,1.7,3l0.7,1.6c0.2,0.5,0.3,1.1,0.5,1.7c0.3,1.1,0.5,2.3,0.6,3.4c0.1,0.6,0,1.2,0,1.7
				c0,0.7-0.1,1.1-0.2,1.7c-0.1,0.6-0.2,1.1-0.3,1.7c-0.2,0.5-0.3,1.1-0.5,1.6c-0.4,1.1-0.9,2.1-1.6,3c-0.7,0.9-1.4,1.8-2.3,2.5
				c-0.9,0.7-1.9,1.3-2.9,1.8c-1,0.5-2.2,0.9-3.3,1c-0.3,0.1-0.6,0.1-0.9,0.1l-0.2,0l-0.1-0.2c0,0,0-0.2-0.1-0.2h0l-0.1,0.2
				l-0.4,0.1c-0.6,0-1.2,0-1.9-0.3c-0.5-0.2-0.8-0.8-0.6-1.3c0.1-0.2,0.2-0.4,0.4-0.5l0.2-0.1c0.6-0.4,1.2-0.8,1.8-1.3
				c0.6-0.5,1.1-0.9,1.6-1.4c0.5-0.5,1-1,1.4-1.6c0.4-0.5,0.8-1.1,1-1.7c0.2-0.6,0.4-1.2,0.4-1.7l0-0.4l0-0.6c0-0.4-0.1-0.7-0.2-1
				c-0.1-0.6-0.4-1.3-0.6-1.9c-0.3-0.6-0.6-1.2-1-1.8c-0.3-0.6-0.8-1.1-1.2-1.7l-0.7-0.8l-0.8-0.7c-0.2-0.2-0.5-0.4-0.8-0.7
				c-0.3-0.2-0.5-0.4-0.9-0.6c-0.6-0.4-1.2-0.8-1.8-1.1c-0.6-0.3-1.3-0.6-2-0.8c-0.7-0.3-1.4-0.4-2.1-0.6c-0.7-0.2-1.4-0.3-2.2-0.4
				l-2.2-0.2l-0.2,0c-0.5-0.1-0.8-0.5-0.8-1c0-0.2,0.1-0.3,0.2-0.4c0.8-1.1,1.6-2.1,2.5-3.1C134,108.6,134.9,107.5,135.7,106.5z
				 M136.1,106.6l0,0.1c-0.6,1.2-1.2,2.4-1.8,3.6c-0.6,1.2-1.3,2.3-1.9,3.5l-0.8-1.4l2.4-0.1c0.8,0.1,1.6,0.1,2.4,0.2
				c0.8,0.2,1.6,0.2,2.4,0.5c0.8,0.2,1.6,0.4,2.4,0.8c0.8,0.3,1.5,0.7,2.3,1.1c0.4,0.2,0.7,0.5,1.1,0.7c0.3,0.2,0.7,0.5,1,0.8l1,0.8
				l0.9,0.9c0.3,0.3,0.5,0.7,0.8,1c0.3,0.3,0.5,0.7,0.7,1.1c0.5,0.7,0.9,1.5,1.2,2.3c0.3,0.8,0.6,1.6,0.7,2.5c0.1,0.5,0.2,1,0.2,1.3
				l0,0.6l0,0.2l0,0.1l0,0.2l0,0.4c-0.1,1-0.4,1.9-0.8,2.7c-0.4,0.8-0.9,1.5-1.5,2.2c-0.5,0.7-1.2,1.2-1.8,1.8c-0.6,0.5-1.3,1-2,1.5
				c-0.7,0.4-1.4,0.8-2.1,1.2l-0.1-1.9c0.3,0.2,0.8,0.3,1.3,0.4l0.4,0.1l0.1,0l0,0c-0.1,0,0,0,0,0l0,0l0.2,0c0.2,0,0.5,0,0.8,0
				c1,0,2-0.2,3-0.6c1-0.3,1.9-0.8,2.8-1.4c0.9-0.6,1.6-1.4,2.2-2.2c0.3-0.4,0.6-0.9,0.8-1.4c0.3-0.5,0.4-1,0.6-1.5
				c0.2-0.5,0.2-1,0.4-1.5c0.1-0.5,0.1-1,0.1-1.5l0-0.8l0-0.4l0-0.1c0,0,0-0.1,0,0l0,0l0-0.2c-0.1-0.5-0.1-1-0.3-1.5
				c-0.1-0.5-0.2-1-0.4-1.5c-0.2-0.5-0.3-1-0.5-1.5l-0.6-1.4l-0.7-1.4c-0.3-0.4-0.5-0.9-0.8-1.3c-0.3-0.4-0.6-0.9-0.8-1.3
				c-0.6-0.9-1.2-1.7-1.9-2.5c-0.3-0.4-0.7-0.8-1-1.2c-0.3-0.4-0.7-0.7-1.1-1.1c-0.7-0.7-1.6-1.3-2.4-1.9c-0.4-0.3-0.9-0.5-1.3-0.7
				c-0.4-0.1-0.8-0.4-1.4-0.4l-0.4-0.1l-0.1,0l0,0l0,0c-0.1,0,0.1,0,0.1,0l0,0l-0.2,0l-0.8-0.1c-0.5,0-1.1-0.1-1.6,0
				c-0.5,0-1.1,0-1.6,0.1C136.8,106.1,136.3,106.3,136.1,106.6z"/>
		</g>
		<g>
			<path fill="#FFFFFF" d="M174.5,85.7c0,0-2.5,0.8-4.7-0.6c-2.3-1.4-6.8,5.7-6.8,8.7s3.8,5.6,3.8,9.3c0,3.7,4.2,11.2,8.6,15.1
				l2.6-1.5c0,0-2.5-4.3-2.6-9.4c-0.2-5.1,1.9-7,1.7-10.4C176.8,93.1,174.2,95.8,174.5,85.7z"/>
			<path d="M174.3,85.9c-0.8,0.3-1.7,0.5-2.7,0.5c-0.5,0-1-0.1-1.5-0.3c-0.3-0.1-0.5-0.2-0.8-0.3c0.1,0.1-0.3-0.1-0.2,0
				c0,0,0,0-0.1,0c-0.3,0.1-1,0.7-1.5,1.3c-0.5,0.6-0.9,1.4-1.3,2.2c-0.4,0.8-0.7,1.6-1,2.3c-0.3,0.8-0.3,1.6-0.3,2.1l0.1,0v0v0
				c0,0-0.1-0.3-0.1-0.1l0,0l0,0.2l0,0.3c0.1,0.1,0,0.1,0.1,0.2c0.1,0.3,0.3,0.6,0.5,0.9c0.4,0.6,1,1.4,1.5,2.2
				c0.6,0.8,1.2,1.8,1.6,3c0.2,0.6,0.4,1.2,0.5,1.9l0,0.5l0,0.1l0,0.1l0,0l0,0c0-0.3,0-0.1,0-0.1l0,0.2l0,0.3c0,0.1,0,0.2,0,0.3
				c0,0.1,0.1,0.2,0.1,0.4l0.2,0.5c0.1,0.4,0.3,0.7,0.4,1.1c0.3,0.8,0.6,1.5,1,2.3c0.8,1.5,1.7,3,2.8,4.3c0.5,0.7,1,1.4,1.6,2
				c0.5,0.6,1.1,1.2,1.7,1.7l-3-0.3l2.7-1.5l-0.9,3.5c-0.4-0.8-0.7-1.4-1-2.1c-0.3-0.7-0.5-1.4-0.7-2.1c-0.4-1.4-0.7-2.9-0.9-4.4
				c-0.1-0.8-0.1-1.5-0.1-2.3c0-0.6,0.1-1.5,0.2-2.2c0.2-1.5,0.7-3,1.2-4.2c0.5-1.3,0.9-2.3,1-3.4l0-0.2l0-0.1l-0.2,0l-0.2,0v0
				c0,0,0.2,0.2,0.2,0.1l0.1-0.1l0-0.5c0-0.1,0-0.2,0-0.2c0-0.1,0-0.2,0-0.3c-0.1-0.2-0.1-0.4-0.3-0.6c-0.2-0.3-0.4-0.6-0.6-1
				c-0.4-0.8-0.5-1.5-0.6-2.3c0-0.4-0.1-0.7-0.1-1.1c0-0.4,0-0.7,0-1.1C173.8,88.5,174.1,87.2,174.3,85.9z M174.6,85.7
				c0,1.3,0,2.7,0.1,4c0.1,0.7,0.1,1.3,0.3,2c0.1,0.6,0.3,1.3,0.7,1.8c0.3,0.6,0.8,1,1.2,1.7c0.2,0.3,0.2,0.7,0.3,1
				c0,0.3,0.1,0.7,0.1,1c0,1.4-0.4,2.7-0.7,4c-0.4,1.3-0.7,2.6-0.8,3.9c-0.1,1.3-0.1,2.6,0.1,3.9c0.2,1.3,0.5,2.6,0.9,3.9
				c0.4,1.3,0.9,2.5,1.6,3.6c0.1,0.1,0,0.3-0.1,0.4l-2.6,1.6c-0.1,0.1-0.2,0-0.3,0c-0.7-0.6-1.4-1.3-2-2c-0.6-0.7-1.2-1.4-1.8-2.2
				c-1.1-1.5-2.1-3.1-2.9-4.8c-0.4-0.8-0.8-1.7-1.1-2.6c-0.3-0.9-0.6-1.8-0.7-2.8c-0.1-0.5-0.1-1-0.1-1.4c0-0.4-0.1-0.9-0.3-1.3
				c-0.3-0.9-0.7-1.7-1.2-2.5c-0.5-0.8-1-1.6-1.5-2.4c-0.2-0.4-0.4-0.9-0.6-1.3c-0.1-0.2-0.1-0.5-0.2-0.7c0-0.2-0.1-0.4,0-0.7
				c0.1-1,0.4-1.9,0.8-2.8c0.4-0.9,0.8-1.7,1.4-2.5c0.5-0.8,1.1-1.5,1.8-2.2c0.7-0.6,1.4-1.4,2.5-1.4c0.3,0,0.5,0.1,0.8,0.2
				c0.2,0.1,0.4,0.2,0.6,0.3c0.4,0.2,0.8,0.3,1.3,0.4c0.9,0.2,1.8,0.1,2.7-0.1C174.5,85.5,174.6,85.6,174.6,85.7
				C174.6,85.7,174.6,85.7,174.6,85.7z"/>
		</g>
		<path fill="#FFFFFF" d="M139.8,117.1c1.3,0,1.1,2.1-0.2,2.1C138.2,119.2,138.4,117.1,139.8,117.1z"/>
		<path d="M186.4,106.1c0,0,9.4,3.5,9.4,8.4c0,4.9-7.1,8.6-12.3,8.6s-5.7-4-5.7-4"/>
		
			<linearGradient id="SVGID_7_" gradientUnits="userSpaceOnUse" x1="-25.2995" y1="113.5676" x2="-7.326" y2="113.5676" gradientTransform="matrix(-1 0 0 1 168 0)">
			<stop  offset="0" style="stop-color:#FF9B2A"/>
			<stop  offset="0.4893" style="stop-color:#FF891D"/>
			<stop  offset="1" style="stop-color:#FF720D"/>
		</linearGradient>
		<path fill="url(#SVGID_7_)" d="M186.1,105.6c0,0,7.2,3.5,7.2,8c0,4.5-6.9,7.9-12.2,7.9s-5.8-3.1-5.8-3.1S186.1,108.6,186.1,105.6"
			/>
		
			<linearGradient id="SVGID_8_" gradientUnits="userSpaceOnUse" x1="28.6053" y1="106.9235" x2="28.6053" y2="106.9235" gradientTransform="matrix(-1 0 0 1 168 0)">
			<stop  offset="0" style="stop-color:#FF9B2A"/>
			<stop  offset="0.2309" style="stop-color:#FF9627"/>
			<stop  offset="0.5193" style="stop-color:#FF8620"/>
			<stop  offset="0.8369" style="stop-color:#FF6D14"/>
			<stop  offset="1" style="stop-color:#FF5D0D"/>
		</linearGradient>
		<path fill="url(#SVGID_8_)" d="M139.4,106.9"/>
		<path d="M158.3,119.7c0,0,0.1-11.4,13.5-11.4c14.6,0,8,26.5,0,25.4c-8-1.1-13.3-6.4-13.3-6.4L158.3,119.7z"/>
		
			<linearGradient id="SVGID_9_" gradientUnits="userSpaceOnUse" x1="-9.3998" y1="120.3662" x2="11.2812" y2="120.3662" gradientTransform="matrix(-1 0 0 1 168 0)">
			<stop  offset="0" style="stop-color:#FFB32A"/>
			<stop  offset="0.3296" style="stop-color:#FFA122"/>
			<stop  offset="0.9872" style="stop-color:#FF730D"/>
			<stop  offset="1" style="stop-color:#FF720D"/>
		</linearGradient>
		<path fill="url(#SVGID_9_)" d="M156.7,119.2c0,0,0.1-10.5,12.6-10.5c13.6,0,7.5,24.4,0,23.4c-7.5-1-12.4-5.8-12.4-5.8L156.7,119.2
			z"/>
	</g>
</g>
</svg>
