<?xml version="1.0" encoding="utf-8"?>
<!-- Generator: Adobe Illustrator 18.1.0, SVG Export Plug-In . SVG Version: 6.00 Build 0)  -->
<svg version="1.1" id="Layer_2" xmlns="http://www.w3.org/2000/svg" xmlns:xlink="http://www.w3.org/1999/xlink" x="0px" y="0px"
	 viewBox="0 0 300 225" enable-background="new 0 0 300 225" xml:space="preserve">
<g>
	<path fill="#1100E7" d="M40,187.8c0,0,10-4.4,20.4-4.4c0,0-14.4,3.1-14.4,9.2s14.3,7.2,14.3,7.2S44,200.5,40,198.2V187.8z"/>
	<path fill="#1100E7" d="M21,195.1c0,0,9.8-4.4,20.3-4.4c0,0-14.4,3.1-14.4,9.2c0,6.1,14.4,7.2,14.4,7.2S25,207.9,21,205.5V195.1z"
		/>
	<path fill="#1100E7" d="M21,179.8c0,0,9.8-4.4,20.3-4.4c0,0-14.4,3.1-14.4,9.2c0,6.1,14.4,7.2,14.4,7.2S25,192.6,21,190.2V179.8z"
		/>
	<path fill="#0300A8" d="M45.5,192.5c-0.4,0.8-6.2,12.3-18,13.3c-10.1,0.9-21.3-6.1-21.3-13.3c0-7.2,11.4-14.1,21.5-13.1
		C39.2,180.5,45,191.5,45.5,192.5z"/>
</g>
<g opacity="0.8">
	<path fill="#008FE6" d="M156,67.2c-0.6,0-1.2,0-1.8,0c1.2,1.7,2.8,3.8,7.8,3.8v-4c1,0.8,3,1.4,5,1.4v-3.1c1,0.3,2,0.5,4,0.5v-2
		C167,65.3,162.5,66.9,156,67.2z"/>
	<path fill="#008FE6" d="M156.1,52.1c7.2,0.4,12.5,2.4,16,4.2c-3.4-4.7-9.5-11.9-13.7-11.9c-5.3,0-14.9,7.2-17.6,9.3
		C145.3,52.5,150.8,51.9,156.1,52.1z"/>
	<path fill="#008FE6" d="M180,52.5c-4,0-5.9,2.5-6.7,4.5c1.5,0.9,2.5,1.7,3,2.2C176.6,54.1,180,52.5,180,52.5z"/>
	<path fill="#008FE6" d="M176.3,60c-0.5,0.5-1.5,1.3-2.9,2.1c0.9,2,2.8,4.3,6.6,4.3C180,66.4,176.7,64.9,176.3,60z"/>
	<path fill="#0300A8" d="M176.8,59.6c-0.1-0.1-0.2-0.2-0.5-0.4c-0.6-0.5-1.6-1.3-3-2.2c-0.4-0.2-0.8-0.5-1.2-0.7
		c-3.4-1.8-8.7-3.8-16-4.2c-5.3-0.3-10.8,0.4-15.3,1.5c-5.6,1.4-9.7,3.7-9.7,5.9c0,3.9,11.8,7.7,23.1,7.6c0.6,0,1.1,0,1.7,0
		c6.5-0.3,11.4-1.9,14.8-3.6c1-0.5,1.9-1,2.7-1.5c1.4-0.9,2.4-1.7,2.9-2.1C176.5,59.8,176.7,59.7,176.8,59.6z"/>
</g>
<g opacity="0.8">
	<path fill="#008FE6" d="M144.8,203.1c-0.7,0-1.7,0-2.4,0.1c1.5,2.1,3.6,4.7,9.6,4.7v-5c2,1,4,1.7,7,1.7v-3.9c1,0.4,3,0.6,5,0.6
		v-2.5C159,200.8,153,202.8,144.8,203.1z"/>
	<path fill="#008FE6" d="M144.7,184.5c9.2,0.4,15.8,2.9,20.2,5.2c-4.3-5.8-12-14.8-17.3-14.8c-6.7,0-18.8,8.9-22.2,11.5
		C131.1,185,138.1,184.2,144.7,184.5z"/>
	<path fill="#008FE6" d="M174.9,185c-5,0-7.4,3.1-8.5,5.5c1.9,1.1,3.1,2.1,3.8,2.7C170.6,186.9,174.9,185,174.9,185z"/>
	<path fill="#008FE6" d="M170.2,194.2c-0.7,0.6-1.9,1.6-3.7,2.6c1.1,2.4,3.5,5.3,8.4,5.3C174.9,202.2,170.7,200.3,170.2,194.2z"/>
	<path fill="#0300A8" d="M170.8,193.7c-0.1-0.1-0.3-0.3-0.6-0.5c-0.7-0.6-2-1.6-3.8-2.7c-0.5-0.3-1-0.6-1.5-0.8
		c-4.3-2.3-11-4.8-20.2-5.2c-6.6-0.3-13.6,0.5-19.4,1.9c-7.1,1.8-12.2,4.5-12.3,7.3c-0.1,4.8,14.9,9.6,29.2,9.4c0.7,0,1.4,0,2.1-0.1
		c8.2-0.4,14.4-2.3,18.7-4.4c1.3-0.6,2.4-1.2,3.4-1.8c1.8-1.1,3-2.1,3.7-2.6C170.6,194,170.8,193.8,170.8,193.7z"/>
</g>
<g opacity="0.7">
	<path fill="#2E76FF" d="M227.9,128.5c-3.3-3.3-8-0.3-9.4,0.7c4.3,1,8.1,3.9,11.1,6.9C230.1,134.3,230.5,131.1,227.9,128.5z"/>
	<path fill="#2E76FF" d="M218.1,160.9c0,0,3.6,3.3,7.1,3.3c3.6,0-1.2-5.5-1.2-5.5l0,0C222.3,159.8,220.4,160.6,218.1,160.9
		L218.1,160.9z"/>
	<path fill="#2E76FF" d="M235,145.5h9.3c3.3-3,4.7-11.3-2.9-11.3c-4.4,0-6.8,3.5-8,6.6c1.3,1.7,2,3.1,2,3.1S235.3,144.5,235,145.5z"
		/>
	<path fill="#2E76FF" d="M244.3,145.5H235c-0.3,0-0.9,1.8-1.7,3.3c1.2,3.1,3.5,7.3,8.1,7.3C249,156.2,247.7,147.5,244.3,145.5z"/>
	<path fill="#0300A8" d="M235.5,143.5c0,0-0.7-1.2-2-2.8c-1-1.3-2.3-2.9-3.9-4.5c-2.9-2.9-6.7-5.9-11.1-6.9c-1-0.2-2-0.4-3.1-0.4
		c-11.2,0-20.4,14.6-20.4,14.6s5.2,17.7,20.2,17.7c1,0,2-0.1,2.9-0.2c2.2-0.4,4.1-1.1,5.9-2.1c4.5-2.6,7.5-7,9.3-10.4
		c0.8-1.5,1.3-2.8,1.7-3.7C235.3,143.9,235.5,143.5,235.5,143.5z"/>
</g>
<line fill="none" stroke="#000000" stroke-miterlimit="10" x1="92.7" y1="25.7" x2="92.7" y2="25.7"/>
<g>
	<path fill="#008FE6" d="M104.1,57.9c0,0,1.9,3.2,8.9,3.2v-4.9L104.1,57.9z"/>
	<path fill="#008FE6" d="M96.3,31.6c0,0,3.7-8.3,10.7-8.3v4.2c0,0,3-3.1,6-3.1v5.1c0,0,4.1-3.3,6.6-0.9s6.3,14.2,6.3,14.2L96.3,31.6
		z"/>
	<path fill="#008FE6" d="M126,42.8c0,0,3.6-7.3,9.8-7.3c0,0-4.9,4.4-4.9,8.7s4.9,8.7,4.9,8.7S126.5,51.7,126,42.8z"/>
	<path fill="#0300A8" d="M81.9,42.8c0,0,10.2-12.4,22.6-12.4s22.2,12.4,22.2,12.4s-5.8,15.1-22.4,15.1S81.9,42.8,81.9,42.8z"/>
</g>
<g opacity="0.8">
	<path fill="#1100E7" d="M178,156.6c0-4.1,7-6.3,7-6.3c-4,0-7.7,1.9-9.2,2.7c1.1,1.7,1.6,3.3,1.7,3.5c-0.1,0.3-0.8,2.1-2.1,4.1
		c2.4,1.3,9.5,0.9,9.5,0.9S178,160.7,178,156.6z"/>
	<path fill="#1100E7" d="M165,165.3L165,165.3c2,1.6,10.2,1.1,10.2,1.1s-2.4-0.3-4.5-1.5c-0.6,0.3-1.7,0.5-2.4,0.6
		C167.3,165.7,166,165.6,165,165.3z"/>
	<path fill="#1100E7" d="M169,147.6c0.4,0.1,0.8,0.2,1.2,0.3c2.1-2,5.5-3,5.5-3c-4.5,0-8.6,2.3-9.5,2.9
		C167.1,147.6,168.1,147.5,169,147.6z"/>
	<path fill="#0300A8" d="M175.9,153c-1.2-2-3.1-4.2-5.7-5.1c-0.4-0.1-0.8-0.2-1.2-0.3c-0.9-0.1-1.9-0.1-2.8,0.2
		c-4,1-7.6,4.8-7.6,8.7c0,3.9,3.5,7.8,7.4,8.8c1,0.3,2,0.4,2.9,0.2c0.7-0.1,1.4-0.3,2-0.6c2-0.9,3.5-2.7,4.6-4.4
		c1.3-2,2-3.8,2.1-4.1C177.6,156.2,177,154.7,175.9,153z"/>
</g>
<g opacity="0.8">
	<path fill="#008FE6" d="M194.7,125.2c-0.3,0-0.8,0-1.1,0c0.7,1.1,2.4,2.6,5.4,2.6v-2.7c1,0.5,3,0.8,4,0.8v-2.2c1,0.3,1,0.4,2,0.4
		v-1.6C203,123.8,199.3,125,194.7,125.2z"/>
	<path fill="#008FE6" d="M195.1,114.9c4.9,0.2,8.5,1.6,10.8,2.9c-2.3-3.2-6.4-8.1-9.3-8.1c-3.6,0-10.1,4.9-11.9,6.3
		C187.7,115.2,191.5,114.7,195.1,114.9z"/>
	<path fill="#008FE6" d="M211.3,115.4c-2.6,0-3.9,1.6-4.5,2.9c1,0.6,1.6,1.1,2,1.4C209,116.1,211.3,115.4,211.3,115.4z"/>
	<path fill="#008FE6" d="M208.8,120.3c-0.4,0.3-1.1,0.9-2.1,1.5c0.6,1.4,1.9,3,4.6,3C211.3,124.8,209,123.5,208.8,120.3z"/>
	<path fill="#0300A8" d="M209.1,120c0,0-0.2-0.1-0.3-0.3c-0.4-0.3-1-0.8-2-1.4c-0.3-0.2-0.6-0.3-0.9-0.5c-2.3-1.3-5.9-2.6-10.8-2.9
		c-3.6-0.2-7.3,0.3-10.4,1c-3.8,1-6.6,2.5-6.6,4c0,2.7,8.1,5.3,15.8,5.2c0.3,0,0.7,0,1,0c4.6-0.2,8-1.4,10.4-2.6
		c0.5-0.3,1-0.5,1.4-0.8c1-0.6,1.7-1.2,2.1-1.5C208.9,120.1,209.1,120,209.1,120z"/>
</g>
<g>
	<path fill="#2E76FF" d="M82.7,172.9c0,0,4-2.6,6.6-0.5c2.6,2,0.8,4.8,0.8,4.8L82.7,172.9z"/>
	<path fill="#2E76FF" d="M82.7,189.4c0,0,2.4,1.8,4.8,1.8c2.4,0-0.8-2.9-0.8-2.9L82.7,189.4z"/>
	<path fill="#2E76FF" d="M92.3,180.5c0,0,1.1-5.7,6.2-5.7s4.2,3.7,2,5.7H92.3z"/>
	<path fill="#2E76FF" d="M92.3,180.5c0,0,1.1,5.7,6.2,5.7s4.2-3.7,2-5.7H92.3z"/>
	<path fill="#0300A8" d="M67,180.2c0,0,6.2-7.7,13.9-7.7s13.6,7.7,13.6,7.7s-3.5,9.3-13.7,9.3S67,180.2,67,180.2z"/>
</g>
<path fill="#008FE6" d="M153,131.2c0,0,2,1.5,6,1.5v-2.3L153,131.2z"/>
<path fill="#008FE6" d="M148.2,118.6c0,0,2.8-4,7.8-4v2c0,0,1-1.5,3-1.5v2.4c0,0,2.9-1.6,4.5-0.4s4.5,6.8,4.5,6.8L148.2,118.6z"/>
<line fill="none" stroke="#000000" stroke-miterlimit="10" x1="166.5" y1="121.3" x2="166.5" y2="121.3"/>
<path fill="#008FE6" d="M167.9,124c0,0,2.4-3.5,6.6-3.5c0,0-3.3,2.1-3.3,4.1c0,2,3.3,4.1,3.3,4.1S168.2,128.2,167.9,124z"/>
<path fill="#0300A8" d="M137.9,124c0,0,6.9-6,15.4-6c8.4,0,15.1,6,15.1,6s-3.9,7.2-15.2,7.2S137.9,124,137.9,124z"/>
<g opacity="0.6">
	<path fill="#008FE6" d="M212,98.8c0.2,0.1,2,0.9,6,0.9v-1.2c-2,0.2-3.4,0.4-5.5,0.4C212.3,98.8,212.1,98.8,212,98.8z"/>
	<path fill="#008FE6" d="M226.6,94.2c-0.8-0.9-2.7-2.9-4-3.4C221,90.1,218,91,218,91v-1.4c-2,0-4,0.8-4,0.8v-1.2
		c-4,0-7.1,2.3-7.1,2.3l0.5,0.1c1.6-0.2,3.4-0.4,5.1-0.4C219,91.3,224.4,93.3,226.6,94.2z"/>
	<path fill="#008FE6" d="M230.5,95c0-1.2,3.3-2.4,3.3-2.4c-3.6,0-5.8,1.4-6.5,1.9c0.2,0.1,0.3,0.1,0.3,0.1s-0.1,0.1-0.4,0.3
		c0.8,2.1,6.5,2.4,6.5,2.4S230.5,96.2,230.5,95z"/>
	<path fill="#0300A8" d="M227.7,94.7c0,0-0.1,0-0.3-0.1c-0.2-0.1-0.4-0.2-0.8-0.3c-2.2-0.9-7.6-2.9-14-2.9c-1.8,0-3.5,0.2-5.1,0.4
		c-6,0.9-10.3,3-10.3,3s3.8,4,14.7,4.1c0.2,0,0.3,0,0.5,0c2.1,0,3.9-0.1,5.5-0.4c5.6-0.8,8.4-2.7,9.4-3.4
		C227.5,94.8,227.7,94.7,227.7,94.7z"/>
</g>
<g opacity="0.6">
	<path fill="#008FE6" d="M241.9,49.5c0.2,0.1,1.1,0.9,6.1,0.9v-1.2c-2,0.2-3.4,0.4-5.5,0.4C242.3,49.5,242.1,49.5,241.9,49.5z"/>
	<path fill="#008FE6" d="M256.6,44.9c-0.8-0.9-2.7-2.9-4-3.4c-1.7-0.7-4.6,0.2-4.6,0.2v-1.4c-2,0-4,0.8-4,0.8v-1.2
		c-4,0-7.1,2.3-7.1,2.3l0.5,0.1c1.6-0.2,3.4-0.4,5.1-0.4C248.9,42,254.4,44,256.6,44.9z"/>
	<path fill="#008FE6" d="M260.5,45.8c0-1.2,3.3-2.4,3.3-2.4c-3.6,0-5.8,1.4-6.5,1.9c0.2,0.1,0.3,0.1,0.3,0.1s-0.1,0.1-0.4,0.3
		c0.8,2.1,6.5,2.4,6.5,2.4S260.5,46.9,260.5,45.8z"/>
	<path fill="#0300A8" d="M257.6,45.4c0,0-0.1,0-0.3-0.1c-0.2-0.1-0.4-0.2-0.8-0.3c-2.2-0.9-7.6-2.9-14-2.9c-1.8,0-3.5,0.2-5.1,0.4
		c-6,0.9-10.3,3-10.3,3s3.8,4,14.7,4.1c0.2,0,0.3,0,0.5,0c2.1,0,3.9-0.1,5.5-0.4c5.6-0.8,8.4-2.7,9.4-3.4
		C257.5,45.5,257.6,45.4,257.6,45.4z"/>
</g>
<path fill="#1100E7" d="M142,96.5c0,0,4.1-2,8.9-2c0,0-6.7,1.4-6.7,4.2s6.7,3.2,6.7,3.2s-7.9,0.3-8.9-0.7V96.5z"/>
<path fill="#1100E7" d="M134,99.8c0,0,3.8-2,8.5-2c0,0-6.8,1.4-6.8,4.2s7,3.2,7,3.2s-7.6,0.3-8.6-0.7V99.8z"/>
<path fill="#1100E7" d="M134,92.9c0,0,3.8-2,8.5-2c0,0-6.8,1.4-6.8,4.2s7,3.2,7,3.2s-7.6,0.3-8.6-0.7V92.9z"/>
<path fill="#0300A8" d="M143.8,98.6c-0.2,0.4-2.8,5.5-8.1,6c-4.6,0.4-9.6-2.8-9.6-6c0-3.3,5.2-6.4,9.7-5.9
	C141,93.2,143.6,98.2,143.8,98.6z"/>
<g opacity="0.6">
	<path fill="#1100E7" d="M240,23.4c0-2,4.8-3.1,4.8-3.1c-2.6,0-5.1,0.8-6.3,1.2c0.8,0.9,1.2,1.7,1.3,1.8c-0.1,0.1-0.6,1.1-1.5,2.1
		c1.8,0.6,6.5,0.4,6.5,0.4S240,25.5,240,23.4z"/>
	<path fill="#1100E7" d="M232,27.8L232,27.8c1,0.8,6.6,0.5,6.6,0.5s-1.9-0.1-3.4-0.7c-0.5,0.2-0.9,0.3-1.4,0.3
		C233.2,27.9,233,27.9,232,27.8z"/>
	<path fill="#1100E7" d="M233.8,19c0.3,0,0.6,0.1,0.9,0.2c1.5-1,3.8-1.5,3.8-1.5c-3,0-5.7,1.1-6.4,1.4
		C232.7,18.9,233.3,18.9,233.8,19z"/>
	<path fill="#0300A8" d="M238.5,21.6c-0.8-1-2.1-2-3.8-2.4c-0.3-0.1-0.6-0.1-0.9-0.2c-0.6-0.1-1.1,0-1.7,0c-2.9,0.4-5.5,2.3-5.5,4.4
		c0,2,2.5,3.9,5.3,4.4c0.6,0.1,1.2,0.1,1.9,0.1c0.5,0,1-0.2,1.5-0.3c1.3-0.4,2.4-1.3,3.1-2.1c0.9-1,1.4-2,1.5-2.1
		C239.7,23.2,239.3,22.4,238.5,21.6z"/>
</g>
<path fill="#008FE6" d="M114,150.8c0,0,2,2.2,4,2.2v-2.8L114,150.8z"/>
<path fill="#008FE6" d="M117,149.8c0,0,1,2.2,4,2.2v-2.8L117,149.8z"/>
<path fill="#008FE6" d="M119,148.8c0,0,0,2.2,4,2.2v-2.8L119,148.8z"/>
<path fill="#008FE6" d="M108.7,146.7c0,0,5.5-3.7,8.3-3.7s7.4,5.9,7.4,5.9L108.7,146.7z"/>
<path fill="#008FE6" d="M123.4,148.5c0,0,0.4-2.6,3.4-2.6c0,0-1.6,1.6-1.7,2.6H123.4z"/>
<path fill="#008FE6" d="M123.4,148.5c0,0,0.4,2.6,3.4,2.6c0,0-1.6-0.6-1.7-2.6H123.4z"/>
<path fill="#0300A8" d="M125.3,148.7c-0.2,0.2-3.3,2.6-9.4,2.9c-5.3,0.2-11.2-1.3-11.2-2.9c0-1.6,6-3,11.3-2.8
	C122,146.1,125.1,148.5,125.3,148.7z"/>
<g>
	<path fill="#008FE6" d="M61,169.4c0,0,0,2.2,4,2.2v-2.8L61,169.4z"/>
	<path fill="#008FE6" d="M63,168.4c0,0,1,2.2,4,2.2v-2.8L63,168.4z"/>
	<path fill="#008FE6" d="M65,167.4c0,0,1,2.2,4,2.2v-2.8L65,167.4z"/>
	<path fill="#008FE6" d="M54.8,165.3c0,0,5.5-3.7,8.3-3.7c2.8,0,7.4,5.9,7.4,5.9L54.8,165.3z"/>
	<path fill="#008FE6" d="M69.5,167.5c0,0,0.4-2.6,3.4-2.6c0,0-1.6,0.6-1.7,2.6H69.5z"/>
	<path fill="#008FE6" d="M69.5,167.5c0,0,0.4,2.6,3.4,2.6c0,0-1.6-1.6-1.7-2.6H69.5z"/>
	<path fill="#0300A8" d="M71.4,167.3c-0.2,0.2-3.3,2.6-9.4,2.9c-5.3,0.2-11.2-1.3-11.2-2.9c0-1.6,6-3,11.3-2.8
		C68.1,164.8,71.1,167.1,71.4,167.3z"/>
</g>
<g opacity="0.7">
	<path fill="#008FE6" d="M204.3,71.6c-0.2,0-0.5,0-0.8,0c0.5,0.6,1.5,1.4,3.5,1.4v-1.5c1,0.3,1,0.5,2,0.5v-1.2
		C208,71.3,206.2,71.6,204.3,71.6z"/>
	<path fill="#008FE6" d="M211.4,71.1v-0.8c-0.7,0.2-1.1,0.4-1.7,0.6C210.2,71,210.7,71.1,211.4,71.1z"/>
	<path fill="#008FE6" d="M204.5,66c3.3,0.1,5.7,0.9,7.2,1.6c-1.6-1.8-4.3-4.5-6.2-4.5c-2.4,0-6.7,2.7-7.9,3.5
		C199.7,66.1,202.2,65.9,204.5,66z"/>
	<path fill="#008FE6" d="M215.3,66.2c-1.7,0-2.6,0.9-3,1.6c0.7,0.3,1.1,0.6,1.3,0.8C213.8,66.8,215.3,66.2,215.3,66.2z"/>
	<path fill="#008FE6" d="M213.7,68.9c-0.2,0.2-0.7,0.5-1.4,0.8c0.4,0.8,1.2,1.7,3,1.7C215.3,71.4,213.8,70.8,213.7,68.9z"/>
	<path fill="#0300A8" d="M213.9,68.8c0,0-0.1-0.1-0.2-0.2c-0.2-0.2-0.7-0.5-1.3-0.8c-0.2-0.1-0.4-0.2-0.6-0.3
		c-1.5-0.7-3.9-1.5-7.2-1.6c-2.4-0.1-4.9,0.1-6.9,0.6c-2.5,0.5-4.4,1.4-4.4,2.2c0,1.5,5.4,2.9,10.5,2.9c0.2,0,0.5,0,0.7,0
		c1.9-0.1,3.5-0.4,4.8-0.7c0.1,0,0.2-0.1,0.3-0.1c0.6-0.2,1.2-0.4,1.7-0.6c0.4-0.2,0.7-0.3,1-0.5c0.7-0.3,1.1-0.6,1.4-0.8
		C213.8,68.9,213.8,68.8,213.9,68.8z"/>
</g>
<g opacity="0.8">
	<path fill="#2E76FF" d="M196.3,33.3c-1.5-1.5-3.6-0.1-4.2,0.3c1.9,0.5,3.7,1.8,5,3.1C197.3,35.9,197.4,34.5,196.3,33.3z"/>
	<path fill="#2E76FF" d="M191.9,47.9c0,0,1.6,1.5,3.2,1.5c1.6,0-0.5-2.5-0.5-2.5l0,0C193.7,47.4,192.9,47.7,191.9,47.9L191.9,47.9z"
		/>
	<path fill="#2E76FF" d="M202.4,35.3c-2.1,0-3.2,1.9-3.7,3.3c0.6,0.8,1,1.4,1,1.4s-0.3,0.9-0.9,2.1c0.6,1.4,1.6,3,3.6,3
		c3.4,0,2.8-3.6,1.3-4.9C205.2,39.5,205.8,35.3,202.4,35.3z"/>
	<path fill="#0300A8" d="M199.7,40c0,0-0.4-0.6-1-1.4c-0.4-0.6-1-1.2-1.6-1.9c-1.3-1.3-3-2.6-5-3.1c-0.5-0.1-0.9-0.2-1.4-0.2
		c-5.1,0-9.2,6.6-9.2,6.6s2.3,8,9.1,8c0.5,0,0.9,0,1.3-0.1c1-0.2,1.9-0.5,2.6-0.9c2.1-1.2,3.5-3.3,4.3-4.9
		C199.4,40.9,199.7,40,199.7,40z"/>
</g>
<g opacity="0.6">
	<path fill="#1100E7" d="M226,80.7c0-2,4.8-3.1,4.8-3.1c-2.6,0-5.1,0.8-6.3,1.2c0.8,0.9,1.2,1.7,1.3,1.8c-0.1,0.1-0.6,1.1-1.5,2.1
		c1.8,0.6,6.5,0.4,6.5,0.4S226,82.7,226,80.7z"/>
	<path fill="#1100E7" d="M218,85L218,85c2,0.8,6.6,0.5,6.6,0.5s-1.9-0.1-3.4-0.7c-0.5,0.2-0.9,0.3-1.4,0.3
		C219.2,85.2,218,85.1,218,85z"/>
	<path fill="#1100E7" d="M219.9,76.2c0.3,0,0.6,0.1,0.9,0.2c1.5-1,3.8-1.5,3.8-1.5c-3,0-5.7,1.1-6.4,1.4
		C218.7,76.2,219.3,76.2,219.9,76.2z"/>
	<path fill="#0300A8" d="M224.6,78.8c-0.8-1-2.1-2-3.8-2.4c-0.3-0.1-0.6-0.1-0.9-0.2c-0.6-0.1-1.1,0-1.7,0c-2.9,0.4-5.5,2.3-5.5,4.4
		c0,2,2.5,3.9,5.3,4.4c0.6,0.1,1.2,0.1,1.9,0.1c0.5,0,1-0.2,1.5-0.3c1.3-0.4,2.4-1.3,3.1-2.1c0.9-1,1.4-2,1.5-2.1
		C225.8,80.5,225.3,79.7,224.6,78.8z"/>
</g>
<g opacity="0.44">
	<path fill="#008FE6" d="M262.3,64.3c-0.2,0-0.5,0-0.8,0c0.5,0.6,1.5,1.4,3.5,1.4v-1.5c0,0.3,1,0.5,2,0.5v-1.2
		C266,64,264.2,64.3,262.3,64.3z"/>
	<path fill="#008FE6" d="M269.2,63.8v-0.8c-0.3,0.2-1.1,0.4-1.7,0.6C268,63.7,268.6,63.8,269.2,63.8z"/>
	<path fill="#008FE6" d="M262.5,58.6c3.3,0.1,5.7,0.9,7.2,1.6c-1.6-1.8-4.3-4.5-6.2-4.5c-2.4,0-6.7,2.7-7.9,3.5
		C257.6,58.8,260.1,58.5,262.5,58.6z"/>
	<path fill="#008FE6" d="M273.2,58.9c-1.7,0-2.6,0.9-3,1.6c0.7,0.3,1.1,0.6,1.3,0.8C271.8,59.5,273.2,58.9,273.2,58.9z"/>
	<path fill="#008FE6" d="M271.6,61.6c-0.2,0.2-0.7,0.5-1.4,0.8c0.4,0.8,1.2,1.7,3,1.7C273.2,64.1,271.7,63.5,271.6,61.6z"/>
	<path fill="#0300A8" d="M271.8,61.5c0,0-0.1-0.1-0.2-0.2c-0.2-0.2-0.7-0.5-1.3-0.8c-0.2-0.1-0.4-0.2-0.6-0.3
		c-1.5-0.7-3.9-1.5-7.2-1.6c-2.4-0.1-4.9,0.1-6.9,0.6c-2.5,0.5-4.4,1.4-4.4,2.2c0,1.5,5.4,2.9,10.5,2.9c0.2,0,0.5,0,0.7,0
		c1.9-0.1,3.5-0.4,4.8-0.7c0.1,0,0.2-0.1,0.3-0.1c0.6-0.2,1.2-0.4,1.7-0.6c0.4-0.2,0.7-0.3,1-0.5c0.7-0.3,1.1-0.6,1.4-0.8
		C271.7,61.5,271.8,61.5,271.8,61.5z"/>
</g>
<g opacity="0.8">
	
		<line fill="none" stroke="#0300A8" stroke-width="0" stroke-linecap="round" stroke-linejoin="round" x1="169.6" y1="87.8" x2="169.6" y2="87.8"/>
	<path fill="#0300A8" d="M172.7,90.4c0-1.5,2.2-3.2,2.2-3.2c-2.4,0-3.9,1.9-4.3,2.5c-0.1-0.1-0.3-0.2-0.4-0.4
		c-0.5-1.2-1.6-3.9-2.4-4.6c-1.1-0.9-2.8,0.3-2.8,0.3v-1.9c-1,0-3,1.1-3,1.1v-1.5c-3,0-4.8,3-4.8,3l0.3,0.1c-4,1.2-6.8,4-6.8,4
		s2.5,5.2,9.6,5.5c0.4,0.4,1.7,1.1,3.7,1.1V95c4-1,6-3.6,6.6-4.7c0.5,2.8,4.3,3.2,4.3,3.2S172.7,91.9,172.7,90.4z"/>
</g>
<g opacity="0.8">
	
		<line fill="none" stroke="#0300A8" stroke-width="0" stroke-linecap="round" stroke-linejoin="round" x1="195.6" y1="173.2" x2="195.6" y2="173.2"/>
	<path fill="#0300A8" d="M198.7,175.2c0-1.2,2.2-2.4,2.2-2.4c-2.4,0-3.9,1.5-4.3,1.9c-0.1-0.1-0.2-0.2-0.4-0.3
		c-0.5-0.9-1.6-3-2.4-3.6c-1.1-0.7-2.8,0.2-2.8,0.2v-1.4c-2,0-3,0.9-3,0.9v-1.2c-3,0-4.9,2.3-4.9,2.3l0.3,0.1
		c-4,0.9-6.8,3.1-6.8,3.1s2.5,4.1,9.7,4.2c0.4,0.3,1.7,0.8,3.7,0.8v-1.1c4-0.8,5.9-2.8,6.6-3.6c0.5,2.2,4.3,2.5,4.3,2.5
		S198.7,176.4,198.7,175.2z"/>
</g>
<g opacity="0.44">
	
		<line fill="none" stroke="#0300A8" stroke-width="0" stroke-linecap="round" stroke-linejoin="round" x1="288.8" y1="33.4" x2="288.8" y2="33.4"/>
	<path fill="#0300A8" d="M291.9,35.4c0-1.2,2.2-2.4,2.2-2.4c-2.4,0-3.9,1.5-4.3,1.9c-0.1-0.1-0.2-0.2-0.4-0.3
		c-0.5-0.9-1.7-3-2.5-3.6c-1.1-0.7-2.9,0.2-2.9,0.2v-1.4c-2,0-3,0.9-3,0.9v-1.2c-2,0-4.7,2.3-4.7,2.3l0.3,0.1
		c-4,0.9-6.8,3.1-6.8,3.1s2.4,4.1,9.6,4.2c0.4,0.3,1.6,0.8,3.6,0.8v-1.1c4-0.8,6.1-2.8,6.7-3.6c0.5,2.2,4.4,2.5,4.4,2.5
		S291.9,36.6,291.9,35.4z"/>
</g>
<g opacity="0.6">
	<path fill="#008FE6" d="M226.8,190.7c0.2,0.1,1.2,0.9,6.2,0.9v-1.2c-2,0.2-3.5,0.4-5.6,0.4C227.2,190.7,227,190.7,226.8,190.7z"/>
	<path fill="#008FE6" d="M241.3,186.1c-0.8-0.9-2.5-2.9-3.8-3.4c-1.7-0.7-4.5,0.2-4.5,0.2v-1.4c-1,0-4,0.8-4,0.8v-1.2
		c-5,0-7.3,2.3-7.3,2.3l0.4,0.1c1.6-0.2,3.3-0.4,5.1-0.4C233.7,183.2,239.1,185.2,241.3,186.1z"/>
	<path fill="#008FE6" d="M245.2,186.9c0-1.2,3.3-2.4,3.3-2.4c-3.6,0-5.8,1.4-6.5,1.9c0.2,0.1,0.3,0.1,0.3,0.1s-0.1,0.1-0.4,0.3
		c0.8,2.1,6.5,2.4,6.5,2.4S245.2,188.1,245.2,186.9z"/>
	<path fill="#0300A8" d="M242.3,186.6c0,0-0.1,0-0.3-0.1c-0.2-0.1-0.4-0.2-0.8-0.3c-2.2-0.9-7.6-2.9-14-2.9c-1.8,0-3.5,0.2-5.1,0.4
		c-6,0.9-10.3,3-10.3,3s3.8,4,14.7,4.1c0.2,0,0.3,0,0.5,0c2.1,0,3.9-0.1,5.5-0.4c5.6-0.8,8.4-2.7,9.4-3.4
		C242.2,186.7,242.3,186.6,242.3,186.6z"/>
</g>
<g opacity="0.44">
	<path fill="#1100E7" d="M286.6,143.3c0-2,4.8-3.1,4.8-3.1c-2.6,0-5.1,0.8-6.3,1.2c0.8,0.9,1.2,1.7,1.3,1.8
		c-0.1,0.1-0.6,1.1-1.5,2.1c1.8,0.6,6.5,0.4,6.5,0.4S286.6,145.3,286.6,143.3z"/>
	<path fill="#1100E7" d="M279,147.6L279,147.6c1,0.8,6.4,0.5,6.4,0.5s-2-0.1-3.5-0.7c-0.5,0.2-0.8,0.3-1.3,0.3
		C280.1,147.8,280,147.7,279,147.6z"/>
	<path fill="#1100E7" d="M280.5,138.8c0.3,0,0.6,0.1,0.9,0.2c1.5-1,3.8-1.5,3.8-1.5c-3,0-5.7,1.1-6.4,1.4
		C279.3,138.8,279.9,138.8,280.5,138.8z"/>
	<path fill="#0300A8" d="M285.2,141.4c-0.8-1-2.1-2-3.8-2.4c-0.3-0.1-0.6-0.1-0.9-0.2c-0.6-0.1-1.1,0-1.7,0
		c-2.9,0.4-5.5,2.3-5.5,4.4c0,2,2.5,3.9,5.3,4.4c0.6,0.1,1.2,0.1,1.9,0.1c0.5,0,1-0.2,1.5-0.3c1.3-0.4,2.4-1.3,3.1-2.1
		c0.9-1,1.4-2,1.5-2.1C286.4,143.1,285.9,142.3,285.2,141.4z"/>
</g>
<g opacity="0.44">
	<path fill="#1100E7" d="M273.3,102c0-2,4.8-3.1,4.8-3.1c-2.6,0-5.1,0.8-6.3,1.2c0.8,0.9,1.2,1.7,1.3,1.8c-0.1,0.1-0.6,1.1-1.5,2.1
		c1.8,0.6,6.5,0.4,6.5,0.4S273.3,104,273.3,102z"/>
	<path fill="#1100E7" d="M265,106.4L265,106.4c1,0.8,6.8,0.5,6.8,0.5s-1.9-0.1-3.3-0.7c-0.5,0.2-1,0.3-1.5,0.3
		C266.3,106.5,265,106.5,265,106.4z"/>
	<path fill="#1100E7" d="M267.1,97.6c0.3,0,0.6,0.1,0.9,0.2c1.5-1,3.8-1.5,3.8-1.5c-3,0-5.7,1.1-6.4,1.4
		C266,97.5,266.6,97.5,267.1,97.6z"/>
	<path fill="#0300A8" d="M271.8,100.1c-0.8-1-2.1-2-3.8-2.4c-0.3-0.1-0.6-0.1-0.9-0.2c-0.6-0.1-1.1,0-1.7,0
		c-2.9,0.4-5.5,2.3-5.5,4.4c0,2,2.5,3.9,5.3,4.4c0.6,0.1,1.2,0.1,1.9,0.1c0.5,0,1-0.2,1.5-0.3c1.3-0.4,2.4-1.3,3.1-2.1
		c0.9-1,1.4-2,1.5-2.1C273,101.8,272.6,101,271.8,100.1z"/>
</g>
<g opacity="0.54">
	<path fill="#008FE6" d="M255.1,168.2c-0.2,0-0.4,0-0.7,0c0.5,0.6,1.6,1.4,3.6,1.4v-1.5c1,0.3,1,0.5,2,0.5v-1.2
		C259,167.8,257,168.1,255.1,168.2z"/>
	<path fill="#008FE6" d="M262,167.6v-0.8c-0.7,0.2-1.1,0.4-1.7,0.6C260.7,167.5,261.3,167.6,262,167.6z"/>
	<path fill="#008FE6" d="M255.2,162.5c3.3,0.1,5.7,0.9,7.2,1.6c-1.6-1.8-4.3-4.5-6.2-4.5c-2.4,0-6.7,2.7-7.9,3.5
		C250.3,162.7,252.8,162.4,255.2,162.5z"/>
	<path fill="#008FE6" d="M265.9,162.8c-1.7,0-2.6,0.9-3,1.6c0.7,0.3,1.1,0.6,1.3,0.8C264.4,163.3,265.9,162.8,265.9,162.8z"/>
	<path fill="#008FE6" d="M264.3,165.5c-0.2,0.2-0.7,0.5-1.4,0.8c0.4,0.8,1.2,1.7,3,1.7C265.9,168,264.4,167.4,264.3,165.5z"/>
	<path fill="#0300A8" d="M264.5,165.3c0,0-0.1-0.1-0.2-0.2c-0.2-0.2-0.7-0.5-1.3-0.8c-0.2-0.1-0.4-0.2-0.6-0.3
		c-1.5-0.7-3.9-1.5-7.2-1.6c-2.4-0.1-4.9,0.1-6.9,0.6c-2.5,0.5-4.4,1.4-4.4,2.2c0,1.5,5.4,2.9,10.5,2.9c0.2,0,0.5,0,0.7,0
		c1.9-0.1,3.5-0.4,4.8-0.7c0.1,0,0.2-0.1,0.3-0.1c0.6-0.2,1.2-0.4,1.7-0.6c0.4-0.2,0.7-0.3,1-0.5c0.7-0.3,1.1-0.6,1.4-0.8
		C264.4,165.4,264.4,165.4,264.5,165.3z"/>
</g>
<g opacity="0.64">
	
		<line fill="none" stroke="#0300A8" stroke-width="0" stroke-linecap="round" stroke-linejoin="round" x1="250.2" y1="109.3" x2="250.2" y2="109.3"/>
	<path fill="#0300A8" d="M253.3,111.3c0-1.2,2.2-2.4,2.2-2.4c-2.4,0-3.9,1.5-4.3,1.9c-0.1-0.1-0.2-0.2-0.4-0.3
		c-0.5-0.9-1.9-3-2.7-3.6c-1.1-0.7-3.1,0.2-3.1,0.2v-1.4c-1,0-2,0.9-2,0.9v-1.2c-3,0-5.1,2.3-5.1,2.3l0.2,0.1
		c-4,0.9-6.9,3.1-6.9,3.1s2.2,4.1,9.3,4.2c0.4,0.3,2.4,0.8,3.4,0.8v-1.1c5-0.8,6.3-2.8,6.9-3.6c0.5,2.2,4.5,2.5,4.5,2.5
		S253.3,112.5,253.3,111.3z"/>
</g>
<g>
	<path fill="#1100E7" d="M59,34c0,0,6.6-2.1,13.6-2.1c0,0-9.4,1.5-9.4,4.3s9.4,3.4,9.4,3.4S62,40,59,38.9V34z"/>
	<path fill="#1100E7" d="M47,37.4c0,0,6.3-2.1,13.2-2.1c0,0-9.6,1.5-9.6,4.3s9.6,3.4,9.6,3.4S49,43.4,47,42.3V37.4z"/>
	<path fill="#1100E7" d="M47,30.3c0,0,6.3-2.1,13.2-2.1c0,0-9.6,1.5-9.6,4.3c0,2.8,9.6,3.4,9.6,3.4S49,36.2,47,35.1V30.3z"/>
	<path fill="#0300A8" d="M62.8,36.2c-0.3,0.4-4.1,5.7-11.9,6.2c-6.7,0.4-14.1-2.9-14.1-6.2c0-3.4,7.5-6.6,14.2-6.1
		C58.6,30.6,62.4,35.7,62.8,36.2z"/>
</g>
</svg>
